<svg xmlns="http://www.w3.org/2000/svg" viewBox="0 0 300 200">
  <!-- Arka plan -->
  <rect width="300" height="200" fill="#FFFFFF" stroke="#CCCCCC" stroke-width="1"/>
  
  <!-- Sol Panel -->
  <rect x="10" y="10" width="90" height="180" fill="#F0F0F0" rx="2" ry="2"/>
  
  <!-- Sol Panel İçeriği -->
  <rect x="20" y="20" width="70" height="15" fill="#3498DB" rx="2" ry="2"/>
  <rect x="20" y="45" width="50" height="5" fill="#95A5A6" rx="2" ry="2"/>
  <rect x="20" y="55" width="70" height="5" fill="#95A5A6" rx="2" ry="2"/>
  <rect x="20" y="75" width="40" height="8" fill="#2C3E50" rx="2" ry="2"/>
  <rect x="20" y="90" width="60" height="5" fill="#BDC3C7" rx="2" ry="2"/>
  <rect x="20" y="100" width="60" height="5" fill="#BDC3C7" rx="2" ry="2"/>
  <rect x="20" y="120" width="40" height="8" fill="#2C3E50" rx="2" ry="2"/>
  <rect x="20" y="135" width="60" height="5" fill="#BDC3C7" rx="2" ry="2"/>
  <rect x="20" y="145" width="60" height="5" fill="#BDC3C7" rx="2" ry="2"/>
  
  <!-- Ana İçerik -->
  <rect x="120" y="20" width="160" height="10" fill="#2C3E50" rx="2" ry="2"/>
  <rect x="120" y="40" width="160" height="5" fill="#BDC3C7" rx="2" ry="2"/>
  <rect x="120" y="50" width="130" height="5" fill="#BDC3C7" rx="2" ry="2"/>
  
  <rect x="120" y="70" width="70" height="10" fill="#2C3E50" rx="2" ry="2"/>
  <rect x="120" y="90" width="160" height="5" fill="#BDC3C7" rx="2" ry="2"/>
  <rect x="120" y="100" width="160" height="5" fill="#BDC3C7" rx="2" ry="2"/>
  <rect x="120" y="110" width="120" height="5" fill="#BDC3C7" rx="2" ry="2"/>
  
  <rect x="120" y="130" width="60" height="10" fill="#2C3E50" rx="2" ry="2"/>
  <rect x="120" y="150" width="160" height="5" fill="#BDC3C7" rx="2" ry="2"/>
  <rect x="120" y="160" width="100" height="5" fill="#BDC3C7" rx="2" ry="2"/>
</svg>